HIERARCHY
ROOT ui
{
	 OFFSET 0 0 0
	 CHANNELS 3 XPosition YPosition Z Position
	 EndSite
	 {
	 OFFSET 0 -1 0
	 }
}
ROOT li
{
	 OFFSET 0 0 0
	 CHANNELS 3 XPosition YPosition Z Position
	 EndSite
	 {
	 OFFSET 0 -1 0
	 }
}
ROOT ul
{
	 OFFSET 0 0 0
	 CHANNELS 3 XPosition YPosition Z Position
	 EndSite
	 {
	 OFFSET 0 -1 0
	 }
}
ROOT ll
{
	 OFFSET 0 0 0
	 CHANNELS 3 XPosition YPosition Z Position
	 EndSite
	 {
	 OFFSET 0 -1 0
	 }
}
ROOT tt
{
	 OFFSET 0 0 0
	 CHANNELS 3 XPosition YPosition Z Position
	 EndSite
	 {
	 OFFSET 0 -1 0
	 }
}
ROOT tb
{
	 OFFSET 0 0 0
	 CHANNELS 3 XPosition YPosition Z Position
	 EndSite
	 {
	 OFFSET 0 -1 0
	 }
}
ROOT td
{
	 OFFSET 0 0 0
	 CHANNELS 3 XPosition YPosition Z Position
	 EndSite
	 {
	 OFFSET 0 -1 0
	 }
}
ROOT v
{
	 OFFSET 0 0 0
	 CHANNELS 3 XPosition YPosition Z Position
	 EndSite
	 {
	 OFFSET 0 -1 0
	 }
}
ROOT bn
{
	 OFFSET 0 0 0
	 CHANNELS 3 XPosition YPosition Z Position
	 EndSite
	 {
	 OFFSET 0 -1 0
	 }
}
MOTION
Frames: 32
Frame Time: 0.002
1.577190011739731E-4	0.0024321630001068115	0		0.5143177490234375	-2.45800537109375	0		-1.1562391357421875	0.04972294235229492	0		-0.4345403747558594	-2.568015869140625	0		1.5273082275390626	-0.6958023071289062	0		3.047915283203125	0.02624420928955078	0		4.55577490234375	0.25843106079101563	0		5.617072265625	0.21204763793945314	0		-0.42429367065429685	5.85887548828125	0		
-0.03681473159790039	0.01350788402557373	0		0.4703438415527344	-2.44781591796875	0		-1.1483438720703125	0.052082027435302734	0		-0.40858563232421874	-2.5629375	0		1.53116064453125	-0.6963649291992188	0		3.05062158203125	0.016706888198852538	0		4.55474951171875	0.26596310424804687	0		5.62330419921875	0.19886692810058593	0		-0.42047723388671876	5.85830224609375	0		
-0.03724769592285156	-0.001983448028564453	0		0.512140380859375	-2.449969970703125	0		-1.14858740234375	0.04858309555053711	0		-0.4397477722167969	-2.561943115234375	0		1.5329208984375	-0.6998807373046875	0		3.049536376953125	0.023245559692382813	0		4.56342431640625	0.2573539123535156	0		5.626017578125	0.1979571075439453	0		-0.4298621520996094	5.84795068359375	0		
-0.03845858383178711	0.002554559946060181	0		0.5158627319335938	-2.45050732421875	0		-1.071903076171875	0.04588396072387695	0		-0.4020764465332031	-2.566022216796875	0		1.530524169921875	-0.7073171997070312	0		3.05324560546875	0.022721391677856445	0		4.573037109375	0.25074365234375	0		5.6328525390625	0.1830704803466797	0		-0.42716738891601563	5.848423828125	0		
-0.029963283538818358	-0.0030475730895996095	0		0.5293060302734375	-2.460185302734375	0		-1.1413035888671874	0.047507789611816405	0		-0.43446893310546875	-2.5649794921875	0		1.5371495361328125	-0.7048812255859375	0		3.053741943359375	0.017260486602783204	0		4.5707060546875	0.2563360595703125	0		5.6277275390625	0.20845799255371095	0		-0.4226365966796875	5.84688232421875	0		
-0.048488426208496097	7.92352020740509E-4	0		0.4848894958496094	-2.449933349609375	0		-1.11796044921875	0.04268087005615234	0		-0.39403768920898435	-2.565072265625	0		1.54567138671875	-0.6984611206054687	0		3.079974365234375	0.0054052271842956546	0		4.5780029296875	0.24878681945800782	0		5.6448994140625	0.1707236785888672	0		-0.4041285095214844	5.85413623046875	0		
-0.019097206115722656	0.010890826225280762	0		0.5430971069335937	-2.4522890625	0		-1.1265645751953124	0.05337498855590821	0		-0.4237397766113281	-2.561043212890625	0		1.5519576416015626	-0.6949926147460938	0		3.07060693359375	0.031129352569580077	0		4.577333984375	0.25537701416015623	0		5.641806640625	0.21856582641601563	0		-0.4019141845703125	5.85466064453125	0		
-0.025234718322753907	5.611889958381653E-4	0		0.5410304565429688	-2.458680419921875	0		-1.058679931640625	0.043873714447021483	0		-0.39084194946289064	-2.56998974609375	0		1.55191650390625	-0.6994124145507813	0		3.068279541015625	0.00874845027923584	0		4.5813837890625	0.25690350341796875	0		5.628748046875	0.18202777099609374	0		-0.3998987121582031	5.8552021484375	0		
-0.022423480987548827	1.036589965224266E-4	0		0.5319448852539063	-2.45294775390625	0		-1.128843994140625	0.045564777374267576	0		-0.4348597106933594	-2.5597080078125	0		1.5526826171875	-0.70283349609375	0		3.07416943359375	0.013251853942871093	0		4.58395751953125	0.2414610595703125	0		5.6378740234375	0.1792611083984375	0		-0.4112445373535156	5.84596533203125	0		
-0.019820465087890624	-3.4063398838043215E-4	0		0.54441064453125	-2.462547119140625	0		-1.0492191162109374	0.045902965545654296	0		-0.4003334045410156	-2.565657470703125	0		1.555287353515625	-0.7032739868164063	0		3.084455810546875	-0.0073086929321289065	0		4.5775771484375	0.24216969299316407	0		5.6326103515625	0.18051829528808594	0		-0.394515380859375	5.85429833984375	0		
-0.01742042922973633	-7.740349769592285E-4	0		0.498979248046875	-2.4522236328125	0		-1.115731689453125	0.05155517196655274	0		-0.4149261474609375	-2.565823486328125	0		1.55973583984375	-0.7007362060546874	0		3.074283447265625	0.019465757369995118	0		4.5920537109375	0.2465555419921875	0		5.63725341796875	0.19178695678710939	0		-0.39212698364257814	5.8538642578125	0		
0.03781098175048828	-3.490399941802025E-5	0		0.5442789916992188	-2.447326416015625	0		-1.0405501708984375	0.04897746658325195	0		-0.39062359619140624	-2.5605966796875	0		1.5619434814453126	-0.7011583862304688	0		3.09215673828125	-0.0022036819458007813	0		4.59116552734375	0.24018637084960937	0		5.63882666015625	0.19106781005859375	0		-0.39091421508789065	5.85445458984375	0		
-0.013190613746643067	-0.0016171460151672363	0		0.4913282470703125	-2.445876953125	0		-1.1155645751953125	0.04677235794067383	0		-0.39062808227539064	-2.562983642578125	0		1.5639677734375	-0.7015745849609375	0		3.09658984375	0.023347402572631838	0		4.5931884765625	0.2397742462158203	0		5.64668896484375	0.1901115264892578	0		-0.38791464233398437	5.85302001953125	0		
0.04355665588378906	-0.00889736557006836	0		0.5331904296875	-2.4459208984375	0		-1.0407408447265625	0.04420647811889648	0		-0.39183926391601565	-2.56735009765625	0		1.56070751953125	-0.7089068603515625	0		3.0911396484375	0.0040498428344726565	0		4.60014697265625	0.24628587341308594	0		5.638658203125	0.1776525115966797	0		-0.38705645751953127	5.85362158203125	0		
-0.034643527984619144	-0.0010470529794692992	0		0.494861328125	-2.446699951171875	0		-1.1120364990234375	0.04594620132446289	0		-0.42410595703125	-2.564224853515625	0		1.567497314453125	-0.7023954467773438	0		3.082041259765625	0.017814065933227537	0		4.5926064453125	0.23202339172363282	0		5.6334375	0.17719683837890626	0		-0.38538217163085936	5.8532109375	0		
0.006928465843200684	0.001914881944656372	0		0.53526171875	-2.454720458984375	0		-1.100555419921875	0.043381118774414064	0		-0.41748049926757813	-2.5577119140625	0		1.53695263671875	-0.7062962036132813	0		3.108173583984375	-0.006981836795806885	0		4.60619775390625	0.23642990112304688	0		5.64871337890625	0.16557540893554687	0		-0.3819041748046875	5.8507724609375	0		
-0.017700035095214842	0.002921506881713867	0		0.5136972045898438	-2.44976123046875	0		-1.1051075439453124	0.04907123184204101	0		-0.3821939697265625	-2.56265087890625	0		1.579316162109375	-0.7063450927734375	0		3.096953369140625	0.019818206787109376	0		4.6095654296875	0.23699746704101562	0		5.647763671875	0.19956044006347656	0		-0.3805547180175781	5.850369140625	0		
-0.00440961217880249	0.00833220386505127	0		0.5518749389648437	-2.45174365234375	0		-1.1039102783203125	0.04867151641845703	0		-0.4278165588378906	-2.551310546875	0		1.5715621337890624	-0.7036024169921875	0		3.10177197265625	-0.004640253067016602	0		4.60666845703125	0.23066337585449218	0		5.639267578125	0.18711865234375	0		-0.38132745361328124	5.8520009765625	0		
-0.02460845947265625	-0.00773098611831665	0		0.55189453125	-2.4541240234375	0		-1.0339468994140626	0.04218796920776367	0		-0.3968954162597656	-2.560178955078125	0		1.573407958984375	-0.7170126953125	0		3.10282275390625	-0.005036248207092285	0		4.60771923828125	0.23026750183105468	0		5.64350390625	0.17418907165527345	0		-0.3934331970214844	5.841810546875	0		
-0.0036319580078125	-0.004441070079803467	0		0.5626668701171875	-2.4636748046875	0		-1.101943603515625	0.04788107681274414	0		-0.42789712524414064	-2.5550693359375	0		1.5794334716796874	-0.7104869384765625	0		3.103738525390625	-0.005431046962738037	0		4.59863671875	0.23003010559082032	0		5.63773828125	0.17375082397460936	0		-0.37936026000976564	5.85121044921875	0		
-0.0047096900939941405	0.003196423053741455	0		0.5156254272460937	-2.4533125	0		-1.101147705078125	0.04748846817016601	0		-0.389075439453125	-2.5540615234375	0		1.5802291259765624	-0.710880615234375	0		3.08886767578125	0.015424318313598633	0		4.613525390625	0.2354137725830078	0		5.64123779296875	0.18506645202636718	0		-0.37856201171875	5.8508173828125	0		
0.007013309001922608	0.004630675792694092	0		0.5573590698242188	-2.451351806640625	0		-1.100454833984375	0.047097042083740236	0		-0.42233255004882814	-2.550917724609375	0		1.5809215087890625	-0.7112736206054687	0		3.084198486328125	-0.007887845039367675	0		4.6042353515625	0.23617657470703124	0		5.6417314453125	0.1843826141357422	0		-0.37883413696289064	5.85244091796875	0		
0.0015110189914703369	-0.00266533899307251	0		0.5481077880859375	-2.442587158203125	0		-1.026872314453125	0.04455543899536133	0		-0.39185687255859375	-2.55978076171875	0		1.579465576171875	-0.7156341552734375	0		3.134004638671875	0.003944273948669434	0		4.61073193359375	0.22868809509277344	0		5.63923388671875	0.17169917297363282	0		-0.37822268676757814	5.8520498046875	0		
0.04306000900268555	-0.00270361590385437	0		0.54761279296875	-2.444963134765625	0		-1.1033717041015625	0.042379100799560546	0		-0.4361099853515625	-2.54646435546875	0		1.5769564208984375	-0.7189793701171875	0		3.106373046875	-0.0070069398880004885	0		4.6112705078125	0.22829286193847656	0		5.63961767578125	0.17101417541503905	0		-0.3776798095703125	5.85165869140625	0		
-5.149999856948852E-4	-0.00640172290802002	0		0.50603564453125	-2.448693115234375	0		-1.098826416015625	0.04592398452758789	0		-0.3908399658203125	-2.560564208984375	0		1.5774383544921875	-0.719373046875	0		3.101966552734375	-3.2379698753356935E-4	0		4.6117529296875	0.2278968505859375	0		5.63996142578125	0.17032781982421874	0		-0.37719265747070313	5.8512666015625	0		
0.05600771713256836	-0.0016785199642181396	0		0.5204041137695312	-2.453306640625	0		-1.098391357421875	0.04553182601928711	0		-0.42027685546875	-2.55248486328125	0		1.58887158203125	-0.7199405517578125	0		3.11933642578125	-0.004986577033996582	0		4.6150458984375	0.21845437622070313	0		5.646134765625	0.19363983154296874	0		-0.36064495849609374	5.85762060546875	0		
0.008592337608337402	0.010684380531311035	0		0.563865478515625	-2.44937841796875	0		-1.085845703125	0.054949493408203126	0		-0.40662258911132815	-2.536084228515625	0		1.5833717041015625	-0.7132403564453125	0		3.10405908203125	0.015868613243103027	0		4.61976611328125	0.23899320983886718	0		5.646412109375	0.1929546356201172	0		-0.3763602294921875	5.8504814453125	0		
-0.021285207748413085	-0.0032319610118865965	0		0.499369384765625	-2.43874609375	0		-1.097662353515625	0.0447494010925293	0		-0.44329568481445314	-2.5368916015625	0		1.5837108154296875	-0.7136325073242188	0		3.0821015625	-0.0031750400066375734	0		4.61701171875	0.23264743041992186	0		5.64079150390625	0.16827365112304687	0		-0.37601739501953124	5.85009033203125	0		
-0.017955591201782226	-6.691510081291199E-4	0		0.5505654907226563	-2.444939453125	0		-1.097379638671875	0.04436050796508789	0		-0.44301443481445313	-2.53728076171875	0		1.57888330078125	-0.7209431762695313	0		3.112380615234375	-0.004039433956146241	0		4.6132001953125	0.22631915283203125	0		5.6409931640625	0.16759439086914063	0		-0.37671551513671875	5.850716796875	0		
-0.0037681989669799804	-0.0032774229049682617	0		0.5097424621582032	-2.4476806640625	0		-1.097158935546875	0.04397345352172852	0		-0.4427953186035156	-2.537668212890625	0		1.576040771484375	-0.7252840576171875	0		3.112601318359375	-0.004429057121276856	0		4.61342138671875	0.22592861938476563	0		5.641150390625	0.16691778564453125	0		-0.37649127197265625	5.8503291015625	0		
0.010465394973754883	0.0011155970096588135	0		0.5628275756835938	-2.45290185546875	0		-1.09700244140625	0.04358866882324219	0		-0.44060928344726563	-2.53608544921875	0		1.546405517578125	-0.7121990966796875	0		3.097091064453125	0.01643299674987793	0		4.617671875	0.23147604370117186	0		5.64712548828125	0.19024284362792968	0		-0.3753466491699219	5.84892822265625	0		
-0.0193604793548584	0.00620543098449707	0		0.504192626953125	-2.435356689453125	0		-1.092864013671875	0.04614332962036133	0		-0.4055399169921875	-2.538019775390625	0		1.584460205078125	-0.7151821899414063	0		3.120816650390625	-0.007327897071838379	0		4.617763671875	0.2310896453857422	0		5.64774560546875	0.16532882690429687	0		-0.3762345886230469	5.8495615234375	0		
